<?xml version="1.0" encoding="UTF-8" standalone="no"?>
<!DOCTYPE svg PUBLIC "-//W3C//DTD SVG 1.1//EN" "http://www.w3.org/Graphics/SVG/1.1/DTD/svg11.dtd">
<svg width="100%" height="100%" viewBox="0 0 523 532" version="1.1" xmlns="http://www.w3.org/2000/svg" xmlns:xlink="http://www.w3.org/1999/xlink" xml:space="preserve" style="fill-rule:evenodd;clip-rule:evenodd;stroke-linejoin:round;stroke-miterlimit:1.41421;">
    <g transform="matrix(1,0,0,1,-469,-111)">
        <g transform="matrix(2.49841,0,0,2.49841,-952.529,-595.694)">
            <circle cx="606.35" cy="373.42" r="33.166" style="fill:rgb(105,184,224);"/>
        </g>
        <g transform="matrix(2.49841,0,0,2.49841,-786.545,-553.35)">
            <circle cx="606.35" cy="373.42" r="33.166" style="fill:rgb(105,184,224);"/>
        </g>
        <g transform="matrix(2.49841,0,0,2.49841,-788.207,-733.166)">
            <circle cx="606.35" cy="373.42" r="33.166" style="fill:rgb(105,184,224);"/>
        </g>
        <g transform="matrix(2.49841,0,0,2.49841,-619.33,-586.978)">
            <circle cx="606.35" cy="373.42" r="33.166" style="fill:rgb(105,184,224);"/>
        </g>
        <g transform="matrix(2.49841,0,0,2.49841,-871.277,-379.87)">
            <circle cx="606.35" cy="373.42" r="33.166" style="fill:rgb(105,184,224);"/>
        </g>
        <g transform="matrix(2.49841,0,0,2.49841,-682.961,-380.788)">
            <circle cx="606.35" cy="373.42" r="33.166" style="fill:rgb(105,184,224);"/>
        </g>
    </g>
</svg>
